<svg width="203" height="89" viewBox="0 0 203 89" fill="none" xmlns="http://www.w3.org/2000/svg">
<path d="M43.4313 71.1875C42.874 71.1875 42.3948 71.1641 41.9938 71.1172C41.5927 71.0703 41.2385 70.9896 40.9313 70.875L41.2594 69.7734C41.4833 69.8568 41.7932 69.9271 42.1891 69.9844C42.5849 70.0417 42.9755 70.0703 43.3609 70.0703C44.0745 70.0703 44.5875 69.9193 44.9 69.6172C45.2177 69.3151 45.3766 68.8568 45.3766 68.2422V67.0938C45.2203 67.2396 45.0094 67.3568 44.7438 67.4453C44.4833 67.5286 44.2177 67.5911 43.9469 67.6328C43.676 67.6693 43.4443 67.6875 43.2516 67.6875C42.1943 67.6875 41.4052 67.4609 40.8844 67.0078C40.3688 66.5547 40.1109 65.8984 40.1109 65.0391V62.3125C40.1109 61.4792 40.3635 60.8125 40.8688 60.3125C41.3792 59.8125 42.1734 59.5625 43.2516 59.5625C43.5328 59.5625 43.8219 59.6042 44.1188 59.6875C44.4208 59.7708 44.6865 59.875 44.9156 60C45.1448 60.125 45.2984 60.2526 45.3766 60.3828V59.7188H46.8453V67.8047C46.8453 68.4505 46.7385 69.0286 46.525 69.5391C46.3167 70.0495 45.9625 70.4505 45.4625 70.7422C44.9677 71.0391 44.2906 71.1875 43.4313 71.1875ZM43.4781 66.5625C44.025 66.5625 44.4495 66.4818 44.7516 66.3203C45.0536 66.1589 45.262 66.0312 45.3766 65.9375V61.8281C45.3766 61.4688 45.2203 61.1901 44.9078 60.9922C44.6005 60.7891 44.1214 60.6875 43.4703 60.6875C42.8922 60.6875 42.4313 60.8047 42.0875 61.0391C41.749 61.2734 41.5797 61.6458 41.5797 62.1562V65.2656C41.5797 65.7604 41.762 66.1016 42.1266 66.2891C42.4911 66.4714 42.9417 66.5625 43.4781 66.5625ZM55.7453 65.0781V62.1953C55.7453 61.4141 56.0135 60.7812 56.55 60.2969C57.0865 59.8073 57.9484 59.5625 59.1359 59.5625C60.2714 59.5625 61.1073 59.7865 61.6438 60.2344C62.1802 60.6771 62.4484 61.2917 62.4484 62.0781V64.0469H57.2141V65.2109C57.2141 65.8828 57.3469 66.3568 57.6125 66.6328C57.8833 66.9089 58.4094 67.0469 59.1906 67.0469C59.6542 67.0469 60.0188 67.0312 60.2844 67C60.5552 66.9635 60.7531 66.8594 60.8781 66.6875C61.0083 66.5104 61.0943 66.2135 61.1359 65.7969H62.4328C62.3651 66.4479 62.2219 66.9453 62.0031 67.2891C61.7896 67.6276 61.4589 67.8594 61.0109 67.9844C60.563 68.1094 59.9563 68.1719 59.1906 68.1719C57.9563 68.1719 57.0734 67.9141 56.5422 67.3984C56.0109 66.8828 55.7453 66.1094 55.7453 65.0781ZM61.0266 63.0547V61.9219C61.0266 61.4219 60.8521 61.0911 60.5031 60.9297C60.1594 60.7682 59.7036 60.6875 59.1359 60.6875C58.5526 60.6875 58.0865 60.7891 57.7375 60.9922C57.3885 61.1953 57.2141 61.5521 57.2141 62.0625V63.0547H61.0266ZM71.3328 59.7188H72.8016V60.5234C73.0464 60.2422 73.3667 60.013 73.7625 59.8359C74.1583 59.6536 74.6557 59.5625 75.2547 59.5625C75.937 59.5625 76.4839 59.6745 76.8953 59.8984C77.312 60.1172 77.6141 60.4115 77.8016 60.7812C77.9891 61.1458 78.0828 61.5469 78.0828 61.9844V68H76.6141V61.8984C76.6141 61.487 76.4526 61.1823 76.1297 60.9844C75.8068 60.7865 75.3901 60.6875 74.8797 60.6875C74.1609 60.6875 73.6349 60.8229 73.3016 61.0938C72.9682 61.3646 72.8016 61.7005 72.8016 62.1016V68H71.3328V59.7188ZM87.0141 65.0781V62.1953C87.0141 61.4141 87.2823 60.7812 87.8188 60.2969C88.3552 59.8073 89.2172 59.5625 90.4047 59.5625C91.5401 59.5625 92.376 59.7865 92.9125 60.2344C93.449 60.6771 93.7172 61.2917 93.7172 62.0781V64.0469H88.4828V65.2109C88.4828 65.8828 88.6156 66.3568 88.8813 66.6328C89.1521 66.9089 89.6781 67.0469 90.4594 67.0469C90.9229 67.0469 91.2875 67.0312 91.5531 67C91.824 66.9635 92.0219 66.8594 92.1469 66.6875C92.2771 66.5104 92.363 66.2135 92.4047 65.7969H93.7016C93.6339 66.4479 93.4906 66.9453 93.2719 67.2891C93.0583 67.6276 92.7276 67.8594 92.2797 67.9844C91.8318 68.1094 91.225 68.1719 90.4594 68.1719C89.225 68.1719 88.3422 67.9141 87.8109 67.3984C87.2797 66.8828 87.0141 66.1094 87.0141 65.0781ZM92.2953 63.0547V61.9219C92.2953 61.4219 92.1208 61.0911 91.7719 60.9297C91.4281 60.7682 90.9724 60.6875 90.4047 60.6875C89.8214 60.6875 89.3552 60.7891 89.0063 60.9922C88.6573 61.1953 88.4828 61.5521 88.4828 62.0625V63.0547H92.2953ZM102.602 59.7188H104.07V60.8906C104.19 60.5781 104.406 60.3281 104.719 60.1406C105.036 59.9479 105.396 59.8099 105.797 59.7266C106.198 59.6432 106.581 59.6016 106.945 59.6016L106.898 60.8594C106.43 60.8594 105.979 60.9245 105.547 61.0547C105.115 61.1797 104.76 61.3438 104.484 61.5469C104.208 61.75 104.07 61.9688 104.07 62.2031V68H102.602V59.7188ZM117.416 68.1719C116.806 68.1719 116.309 68.0677 115.923 67.8594C115.543 67.6458 115.262 67.3672 115.08 67.0234C114.903 66.6745 114.814 66.3021 114.814 65.9062C114.814 65.4896 114.895 65.1406 115.056 64.8594C115.223 64.5729 115.533 64.3151 115.986 64.0859C116.444 63.8516 117.114 63.6068 117.994 63.3516C118.452 63.2161 118.819 63.0964 119.095 62.9922C119.371 62.888 119.572 62.7552 119.697 62.5938C119.822 62.4323 119.884 62.2005 119.884 61.8984C119.884 61.6745 119.848 61.4714 119.775 61.2891C119.707 61.1068 119.564 60.9609 119.345 60.8516C119.132 60.7422 118.804 60.6875 118.361 60.6875C117.809 60.6875 117.405 60.7448 117.15 60.8594C116.895 60.974 116.731 61.125 116.658 61.3125C116.59 61.4948 116.556 61.6979 116.556 61.9219V62.2891H115.142V61.9141C115.142 61.0964 115.416 60.5 115.963 60.125C116.509 59.75 117.324 59.5625 118.408 59.5625C119.502 59.5625 120.265 59.8177 120.697 60.3281C121.134 60.8385 121.353 61.5208 121.353 62.375V65.9062C121.353 66.3438 121.408 66.625 121.517 66.75C121.632 66.875 121.866 66.9375 122.22 66.9375L122.048 68.0625H121.752C121.199 68.0625 120.801 67.9557 120.556 67.7422C120.311 67.5234 120.127 67.2188 120.002 66.8281C119.882 67.0156 119.715 67.2135 119.502 67.4219C119.293 67.6302 119.02 67.8073 118.681 67.9531C118.348 68.099 117.926 68.1719 117.416 68.1719ZM117.595 67.0781C117.892 67.0781 118.202 67.0156 118.525 66.8906C118.848 66.7604 119.134 66.5911 119.384 66.3828C119.64 66.1693 119.806 65.9349 119.884 65.6797V63.5C119.77 63.6146 119.569 63.7656 119.283 63.9531C119.002 64.1354 118.598 64.3021 118.072 64.4531C117.431 64.6354 116.96 64.8229 116.658 65.0156C116.361 65.2083 116.213 65.4896 116.213 65.8594C116.213 66.276 116.319 66.5833 116.533 66.7812C116.752 66.9792 117.106 67.0781 117.595 67.0781ZM131.347 65.6328V60.8281H129.964V59.7188H131.402L131.581 57.1562H132.816V59.7188H134.894V60.8281H132.816V65.5391C132.816 66.0859 132.977 66.4375 133.3 66.5938C133.623 66.75 134.133 66.8281 134.831 66.8281H134.995L134.839 68.0625H134.62C133.49 68.0625 132.662 67.8854 132.136 67.5312C131.61 67.1771 131.347 66.5443 131.347 65.6328ZM146.825 68.1719C145.997 68.1719 145.33 68.0599 144.825 67.8359C144.325 67.6068 143.96 67.2943 143.731 66.8984C143.507 66.5026 143.395 66.0495 143.395 65.5391V62.2031C143.395 61.6927 143.507 61.2396 143.731 60.8438C143.96 60.4427 144.325 60.1302 144.825 59.9062C145.33 59.6771 145.997 59.5625 146.825 59.5625C147.648 59.5625 148.309 59.6771 148.809 59.9062C149.315 60.1302 149.682 60.4427 149.911 60.8438C150.14 61.2396 150.255 61.6927 150.255 62.2031V65.5391C150.255 66.0495 150.14 66.5026 149.911 66.8984C149.682 67.2943 149.315 67.6068 148.809 67.8359C148.309 68.0599 147.648 68.1719 146.825 68.1719ZM146.825 67.0469C147.398 67.0469 147.867 66.9453 148.231 66.7422C148.601 66.5339 148.786 66.1745 148.786 65.6641V62.0781C148.786 61.5677 148.601 61.2083 148.231 61C147.867 60.7917 147.398 60.6875 146.825 60.6875C146.242 60.6875 145.768 60.7917 145.403 61C145.044 61.2083 144.864 61.5677 144.864 62.0781V65.6641C144.864 66.1745 145.044 66.5339 145.403 66.7422C145.768 66.9453 146.242 67.0469 146.825 67.0469ZM159.264 59.7188H160.733V60.8906C160.853 60.5781 161.069 60.3281 161.381 60.1406C161.699 59.9479 162.058 59.8099 162.459 59.7266C162.86 59.6432 163.243 59.6016 163.608 59.6016L163.561 60.8594C163.092 60.8594 162.642 60.9245 162.209 61.0547C161.777 61.1797 161.423 61.3438 161.147 61.5469C160.871 61.75 160.733 61.9688 160.733 62.2031V68H159.264V59.7188Z" fill="white"/>
<path d="M22.2812 61L16.8906 52.4922C13.5625 52.3359 11.0078 51.7422 9.22656 50.7109C7.44531 49.6797 6.21094 48.2969 5.52344 46.5625C4.85156 44.8281 4.51562 42.8438 4.51562 40.6094V29.9453C4.51562 28.1484 4.71094 26.5 5.10156 25C5.50781 23.5 6.21875 22.1953 7.23438 21.0859C8.25 19.9766 9.66406 19.1172 11.4766 18.5078C13.3047 17.8984 15.6406 17.5938 18.4844 17.5938C21.2188 17.5938 23.4688 17.9141 25.2344 18.5547C27 19.1953 28.375 20.0938 29.3594 21.25C30.3438 22.3906 31.0312 23.7266 31.4219 25.2578C31.8281 26.7891 32.0312 28.4531 32.0312 30.25V40.2812C32.0312 42.3906 31.7266 44.3125 31.1172 46.0469C30.5078 47.7812 29.4141 49.2031 27.8359 50.3125C26.2734 51.4219 24.0391 52.1172 21.1328 52.3984L25.5859 59.2188L22.2812 61ZM18.4844 48.7188C20.5 48.7188 22.1562 48.5234 23.4531 48.1328C24.7656 47.7266 25.7344 46.9922 26.3594 45.9297C27 44.8672 27.3203 43.3359 27.3203 41.3359V29.0781C27.3203 27.0625 27 25.5 26.3594 24.3906C25.7188 23.2812 24.7422 22.5078 23.4297 22.0703C22.1328 21.6172 20.4844 21.3906 18.4844 21.3906C16.5 21.3906 14.8203 21.6172 13.4453 22.0703C12.0703 22.5078 11.0234 23.2812 10.3047 24.3906C9.60156 25.5 9.25 27.0625 9.25 29.0781V41.3359C9.25 43.3359 9.60156 44.8672 10.3047 45.9297C11.0078 46.9922 12.0469 47.7266 13.4219 48.1328C14.7969 48.5234 16.4844 48.7188 18.4844 48.7188ZM46.2062 52V18.1094H61.3234C63.2297 18.1094 64.8859 18.4219 66.2922 19.0469C67.7141 19.6562 68.8156 20.6953 69.5969 22.1641C70.3937 23.6172 70.7922 25.6094 70.7922 28.1406C70.7922 30.875 70.3469 32.9062 69.4562 34.2344C68.5812 35.5469 67.4328 36.5 66.0109 37.0938L73.2062 52H68.3547L61.6281 37.9375H50.9406V52H46.2062ZM50.9406 34.375H60.925C62.3 34.375 63.3547 34.1172 64.0891 33.6016C64.8234 33.0859 65.3312 32.3906 65.6125 31.5156C65.9094 30.625 66.0578 29.6406 66.0578 28.5625C66.0578 27.4688 65.9641 26.3984 65.7766 25.3516C65.6047 24.3047 65.1984 23.4375 64.5578 22.75C63.9172 22.0469 62.8859 21.6953 61.4641 21.6953H50.9406V34.375ZM93.7797 52.5156C91.3109 52.5156 89.3344 52.125 87.85 51.3438C86.3812 50.5469 85.3187 49.5 84.6625 48.2031C84.0062 46.8906 83.6781 45.4688 83.6781 43.9375V34.4688C83.6781 32.125 84.5687 30.2422 86.35 28.8203C88.1469 27.3984 90.5844 26.6875 93.6625 26.6875C95.6469 26.6875 97.3734 26.9219 98.8422 27.3906C100.311 27.8438 101.444 28.6719 102.241 29.875C103.053 31.0781 103.459 32.7969 103.459 35.0312L99.2641 35.4297C99.2641 33.9141 99.0922 32.7734 98.7484 32.0078C98.4047 31.2422 97.8344 30.7266 97.0375 30.4609C96.2406 30.1953 95.1547 30.0625 93.7797 30.0625C91.8891 30.0625 90.4672 30.4062 89.5141 31.0938C88.5609 31.7656 88.0844 32.9297 88.0844 34.5859V44.3125C88.0844 46.0938 88.5844 47.3438 89.5844 48.0625C90.6 48.7812 91.9984 49.1406 93.7797 49.1406C95.2328 49.1406 96.3344 49.0391 97.0844 48.8359C97.85 48.6172 98.3891 48.1953 98.7016 47.5703C99.0141 46.9297 99.225 45.9844 99.3344 44.7344H103.412C103.256 46.6406 102.85 48.1641 102.194 49.3047C101.537 50.4453 100.53 51.2656 99.1703 51.7656C97.8266 52.2656 96.0297 52.5156 93.7797 52.5156ZM124.689 52.5156C122.205 52.5156 120.205 52.1797 118.689 51.5078C117.189 50.8203 116.095 49.8828 115.408 48.6953C114.736 47.5078 114.4 46.1484 114.4 44.6172V34.6094C114.4 33.0781 114.736 31.7188 115.408 30.5312C116.095 29.3281 117.189 28.3906 118.689 27.7188C120.205 27.0312 122.205 26.6875 124.689 26.6875C127.158 26.6875 129.142 27.0312 130.642 27.7188C132.158 28.3906 133.259 29.3281 133.947 30.5312C134.634 31.7188 134.978 33.0781 134.978 34.6094V44.6172C134.978 46.1484 134.634 47.5078 133.947 48.6953C133.259 49.8828 132.158 50.8203 130.642 51.5078C129.142 52.1797 127.158 52.5156 124.689 52.5156ZM124.689 49.1406C126.408 49.1406 127.814 48.8359 128.908 48.2266C130.017 47.6016 130.572 46.5234 130.572 44.9922V34.2344C130.572 32.7031 130.017 31.625 128.908 31C127.814 30.375 126.408 30.0625 124.689 30.0625C122.939 30.0625 121.517 30.375 120.423 31C119.345 31.625 118.806 32.7031 118.806 34.2344V44.9922C118.806 46.5234 119.345 47.6016 120.423 48.2266C121.517 48.8359 122.939 49.1406 124.689 49.1406ZM146.716 44.1484V34.7734C146.716 32.2734 147.544 30.3047 149.2 28.8672C150.856 27.4141 153.489 26.6875 157.098 26.6875C157.88 26.6875 158.802 26.7734 159.864 26.9453C160.927 27.1172 161.841 27.3438 162.606 27.625V16.7266H167.012V52H164.012L163.286 50.3594C162.567 50.9219 161.583 51.4219 160.333 51.8594C159.098 52.2969 157.841 52.5156 156.559 52.5156C154.184 52.5156 152.27 52.1484 150.817 51.4141C149.38 50.6797 148.333 49.6875 147.677 48.4375C147.036 47.1719 146.716 45.7422 146.716 44.1484ZM162.606 47.5703V31.0938C161.95 30.7812 161.13 30.5312 160.145 30.3438C159.177 30.1562 158.177 30.0625 157.145 30.0625C155.411 30.0625 153.973 30.3828 152.833 31.0234C151.692 31.6641 151.122 32.75 151.122 34.2812V44.4766C151.122 46.0234 151.669 47.1719 152.762 47.9219C153.872 48.6719 155.231 49.0469 156.841 49.0469C158.091 49.0469 159.239 48.875 160.286 48.5312C161.333 48.1875 162.106 47.8672 162.606 47.5703ZM179.641 43.2344V34.5859C179.641 32.2422 180.445 30.3438 182.055 28.8906C183.664 27.4219 186.25 26.6875 189.812 26.6875C193.219 26.6875 195.727 27.3594 197.336 28.7031C198.945 30.0312 199.75 31.875 199.75 34.2344V40.1406H184.047V43.6328C184.047 45.6484 184.445 47.0703 185.242 47.8984C186.055 48.7266 187.633 49.1406 189.977 49.1406C191.367 49.1406 192.461 49.0938 193.258 49C194.07 48.8906 194.664 48.5781 195.039 48.0625C195.43 47.5312 195.688 46.6406 195.812 45.3906H199.703C199.5 47.3438 199.07 48.8359 198.414 49.8672C197.773 50.8828 196.781 51.5781 195.438 51.9531C194.094 52.3281 192.273 52.5156 189.977 52.5156C186.273 52.5156 183.625 51.7422 182.031 50.1953C180.438 48.6484 179.641 46.3281 179.641 43.2344ZM195.484 37.1641V33.7656C195.484 32.2656 194.961 31.2734 193.914 30.7891C192.883 30.3047 191.516 30.0625 189.812 30.0625C188.062 30.0625 186.664 30.3672 185.617 30.9766C184.57 31.5859 184.047 32.6562 184.047 34.1875V37.1641H195.484Z" fill="white"/>
</svg>
